<?xml version="1.0" encoding="utf-8"?>
<!-- Svg Vector Icons : http://www.onlinewebfonts.com/icon -->
<!DOCTYPE svg PUBLIC "-//W3C//DTD SVG 1.1//EN" "http://www.w3.org/Graphics/SVG/1.1/DTD/svg11.dtd">
<svg version="1.1" xmlns="http://www.w3.org/2000/svg" xmlns:xlink="http://www.w3.org/1999/xlink" height="17" x="0px" y="0px" viewBox="0 0 256 256" enable-background="new 0 0 256 256" xml:space="preserve">
<metadata> Svg Vector Icons : http://www.onlinewebfonts.com/icon </metadata>
<g stroke-width="5"><g><path fill="#01d167" d="M128,6.6C62.9,6.6,10,61,10,128c0,67,52.8,121.4,118,121.4c25.1,0,48.2-8.4,67.3-22.2c5.1-4.8,8.2-5.3,8.2-10.5l0.1-1c0-6.1-4.8-11-10.7-11c-3.1,0-5.8,1.3-7.7,3.5c-16,12-35.6,19.2-57,19.2c-53.4,0-96.7-44.5-96.7-99.4s43.3-99.5,96.7-99.5c53.4,0,96.7,44.5,96.7,99.5c0,15.2-3.4,29.5-9.3,42.4c0,0-2.6,5-5,12l-0.1,1c0,6.1,4.8,11,10.7,11c4.8,0,8.7-3.3,10.1-7.9l0,0c9.3-17.3,14.6-37.3,14.6-58.5C246,61,193.2,6.6,128,6.6z M62.1,114.8c0.1,2.5,1.2,5,3,6.8c1.9,1.9,4.4,2.9,6.8,3l0,0c0.4,0,0.7,0,1.1,0l109.2,0c5.8,0,10.4-4.7,10.4-10.5c0-5.8-4.7-10.5-10.4-10.5L97,103.9l12.4-12.5c3.9-3.9,3.9-10.4,0-14.3c-3.9-3.9-10.4-3.9-14.3,0l-29.9,30.2c-1.8,1.8-2.7,4-2.9,6.4l-0.1,0C62.1,113.7,62.1,114.4,62.1,114.8L62.1,114.8L62.1,114.8z M145.5,184.5c3.9,3.9,10.4,3.9,14.3,0l29.9-30.1c1.8-1.8,2.8-4,2.9-6.4l0.1,0c0,0,0-0.7,0-1.1l0,0l0,0c-0.1-2.5-1.2-4.9-3-6.8c-1.9-1.9-4.4-2.9-6.8-3l0,0c-0.4,0-0.7,0-1.1,0l-109.2,0c-5.8,0-10.5,4.7-10.5,10.4S66.8,158,72.6,158l85.3-0.1l-12.4,12.5C141.6,174.2,141.6,180.6,145.5,184.5z"/></g></g>
</svg>